# xmcd CD database file
#
# Track frame offsets:
#	150
#	72353
#	114792
#	148869
#	266742
#
# Disc length: 4468 seconds
#
# Revision: 0
# Processed by: cddbd v1.5.2PL0 Copyright (c) Steve Scherf et al.
# Submitted via: CDex 1.70beta2
#
DISCID=47117205
DTITLE=Icarus - Icarus
DYEAR=1995
DGENRE=Jazz
TTITLE0=improvisation one
TTITLE1=improvisation two
TTITLE2=improvisation three
TTITLE3=improvisation four
TTITLE4=improvisation five
EXTD=YEAR: 1995
EXTT0=
EXTT1=
EXTT2=
EXTT3=
EXTT4=
PLAYORDER=
